Coordinates
version=1
nRows=11
nColumns=36
inDegrees=yes

Units are S.I. units (second, meters, Newtons, ...)
If the header above contains a line with 'inDegrees', this indicates whether rotational values are in degrees (yes) or radians (no).

endheader
time	pelvis_tilt	pelvis_list	pelvis_rotation	pelvis_tx	pelvis_ty	pelvis_tz	hip_flexion_r	hip_adduction_r	hip_rotation_r	knee_angle_r	knee_angle_r_beta	ankle_angle_r	subtalar_angle_r	mtp_angle_r	hip_flexion_l	hip_adduction_l	hip_rotation_l	knee_angle_l	knee_angle_l_beta	ankle_angle_l	subtalar_angle_l	mtp_angle_l	lumbar_extension	lumbar_bending	lumbar_rotation	arm_flex_r	arm_add_r	arm_rot_r	elbow_flex_r	pro_sup_r	arm_flex_l	arm_add_l	arm_rot_l	elbow_flex_l	pro_sup_l
      1.66666670	    -10.21703880	     -1.44441184	     -0.72010670	      0.98722069	      0.74453242	     -0.15331120	     36.61344598	     12.20494958	     -6.07373694	     68.71573794	      1.19931587	     41.03522797	     11.00891475	     -7.49999973	     64.89913423	    -10.99447615	     11.77366053	     31.89470385	      0.55666760	      2.22060391	    -17.27773526	     -7.49999973	     -9.81653867	      8.43898755	     -7.72657474	     38.45608844	     -6.94577957	     62.81596136	    130.70676747	    103.85580324	     36.47098715	     -2.88470950	     62.50996424	    127.28835089	    107.50577231
      1.68333330	    -10.35792369	     -1.71672189	     -1.01097266	      0.98703561	      0.74067334	     -0.15275979	     37.08073861	     12.52567358	     -6.19015448	     69.39784326	      1.21122086	     41.14267164	     11.34917396	     -7.49999974	     65.22031618	    -11.38528913	     12.17652032	     32.06478104	      0.55963600	      2.13410936	    -17.08922820	     -7.49999974	     -9.92085463	      8.67175577	     -7.48833783	     38.64339852	     -6.96611902	     62.61872078	    130.23916306	    102.98072532	     37.11189229	     -3.14105366	     62.68648438	    126.93685292	    106.62842155
      1.70000000	    -10.55673036	     -1.91651459	     -1.23550975	      0.98735768	      0.74044407	     -0.15262278	     37.51439677	     12.79558728	     -6.27609267	     69.83894317	      1.21891950	     41.26050758	     11.49722732	     -7.49999975	     65.54247530	    -11.67036024	     12.52749279	     32.18564796	      0.56174553	      1.87285054	    -17.00910637	     -7.49999975	    -10.09651042	      9.07062531	     -7.22158426	     38.96192870	     -7.14095869	     63.34116832	    129.72761733	    102.02422252	     37.70419102	     -3.03270374	     63.38520913	    126.23378505	    105.91622656
      1.71666670	    -10.73068783	     -2.08746941	     -1.40583394	      0.98739511	      0.73984132	     -0.15255217	     37.86242794	     13.01788709	     -6.29391004	     70.12903577	      1.22398258	     41.21427088	     11.43067420	     -7.49999976	     65.77963250	    -11.87265296	     12.92593981	     32.18358588	      0.56170954	      1.73025549	    -17.10099539	     -7.49999976	    -10.25743155	      9.41693100	     -6.78627726	     39.43134547	     -7.29922049	     63.80592779	    129.16194049	    101.21609488	     37.70580276	     -2.77161525	     64.41481414	    126.19576006	    105.17167245
      1.73333330	    -10.88373232	     -2.13817585	     -1.47399795	      0.98769213	      0.73975117	     -0.15258339	     38.18046668	     13.15183509	     -6.23349991	     70.38476678	      1.22844592	     41.05151772	     11.12572445	     -7.49999977	     65.95719302	    -11.93544940	     13.18247948	     32.19369109	      0.56188591	      1.53411103	    -17.20696212	     -7.49999977	    -10.39994165	      9.66768336	     -6.51850294	     39.60000089	     -7.50588534	     64.03057896	    129.13905992	    104.39484633	     37.56473072	     -2.26187246	     64.98684930	    125.96040968	    108.84965439
      1.75000000	    -10.98893537	     -2.21524983	     -1.49171131	      0.98768430	      0.73911703	     -0.15257460	     38.37793980	     13.23806637	     -6.24910764	     70.49136522	      1.23030642	     41.09715227	     11.21352542	     -7.49999978	     66.17174496	    -11.99674670	     13.42666286	     32.29170941	      0.56359665	      1.71704669	    -16.91699042	     -7.49999978	    -10.53680534	      9.95372325	     -6.33987923	     39.51682703	     -7.77713061	     63.75616101	    129.14941627	    102.66529918	     37.23044729	     -2.06331143	     65.59264474	    126.00024244	    107.25102762
      1.76666670	    -11.08515410	     -2.19913903	     -1.48626327	      0.98784571	      0.73910050	     -0.15260777	     38.44888997	     13.24112562	     -6.13814757	     70.38915020	      1.22852243	     40.79170434	     10.94251431	     -7.49999980	     66.23157743	    -12.02047061	     13.61355797	     32.20801780	      0.56213596	      1.69200837	    -17.06006453	     -7.49999980	    -10.77045947	     10.16682560	     -5.94644109	     39.40876789	     -8.09808342	     63.48863309	    129.25606229	    104.56016684	     36.95000040	     -1.57637478	     65.98350755	    125.92194275	    109.15462416
      1.78333330	    -11.15639359	     -2.17533179	     -1.57627326	      0.98762098	      0.73868027	     -0.15236871	     38.51291011	     13.25779390	     -5.99381815	     70.27932043	      1.22660554	     40.73063121	     11.09842803	     -7.49999981	     66.35100325	    -12.11935138	     13.61529138	     32.20222853	      0.56203491	      2.11435971	    -16.61564678	     -7.49999981	    -10.94132513	     10.33138244	     -5.58453132	     39.27677846	     -8.11276356	     63.27846835	    129.34967795	    102.42715303	     36.66571704	     -1.14645310	     65.96352455	    126.25865459	    106.65599685
      1.80000000	    -11.42505869	     -2.14975153	     -1.41426984	      0.98776156	      0.73863851	     -0.15257029	     38.82233013	     13.14027494	     -6.06524765	     70.23460619	      1.22582513	     40.42629057	     10.94371046	     -7.49999981	     66.69962642	    -11.97315756	     13.69653872	     32.14758793	      0.56108126	      2.49546378	    -16.41683224	     -7.49999981	    -10.88384372	     10.54960171	     -5.38467802	     39.01534665	     -8.47513230	     63.48185079	    130.01981603	    104.88877426	     36.46063204	     -0.59259445	     66.30291973	    126.38963079	    109.59529194
      1.81666670	    -11.49332597	     -2.06274621	     -1.18624249	      0.98729480	      0.73833683	     -0.15261921	     38.98832291	     12.95657823	     -6.16261245	     70.31440918	      1.22721795	     40.46749468	     11.10920006	     -7.49999982	     66.92001435	    -11.78996813	     13.67290813	     32.32467838	      0.56417207	      3.04753613	    -16.16421707	     -7.49999982	    -10.83452154	     10.69460559	     -5.27795071	     38.68906043	     -8.63197773	     63.47901174	    130.31088364	    103.60882736	     36.33057715	     -0.25954205	     66.41507849	    126.60013828	    108.64921649
      1.83333330	    -11.66112223	     -1.96725934	     -0.90111760	      0.98722129	      0.73850464	     -0.15276387	     39.15610735	     12.77597886	     -6.23519613	     70.17115459	      1.22471769	     40.44488097	     11.03833818	     -7.49999982	     67.33771165	    -11.62221130	     13.49324569	     32.51025217	      0.56741094	      3.56129728	    -16.03404201	     -7.49999982	    -10.72969566	     10.80987777	     -5.28561671	     38.60277086	     -8.71838620	     63.71020899	    130.68972345	    102.39926888	     36.60352305	     -0.58582733	     66.53685816	    126.92216663	    107.10977981
